<svg width="180" height="180" viewBox="0 0 180 180" fill="none" xmlns="http://www.w3.org/2000/svg">
  <style>
    @media (prefers-color-scheme: light) {
      .bg { fill: oklch(0.99 0.002 250); }
      .fg { fill: oklch(0.286 0.083 248); }
    }
    @media (prefers-color-scheme: dark) {
      .bg { fill: oklch(0.1 0.015 260); }
      .fg { fill: oklch(0.7 0.02 250); }
    }
  </style>
  <rect class="bg" width="180" height="180" rx="32" />
  <g class="fg" fill="inherit" transform="translate(90 90)">
    <!-- J -->
    <path d="M-30-28 h12 v44 c0 10 -6 16 -14 16 c-4 0 -8 -2 -10 -5 l8 -6 c1 2 3 3 2 3 c4 0 6 -4 6 -12 v-44 h-4 z"/>
    <!-- C -->
    <path d="M 12 -26 c-12 0 -22 10 -22 22 c0 12 10 22 22 22 c8 0 14 -3 18 -8 l-8 -6 c-2 3 -6 4 -10 4 c-6 0 -10 -6 -10 -12 c0 -6 4 -12 10 -12 c4 0 8 1 10 4 l8 -6 c-4 -5 -10 -8 -18 -8 z"/>
  </g>
</svg>
